<?xml version="1.0" encoding="utf-8"?>
<!-- Generator: Adobe Illustrator 24.0.2, SVG Export Plug-In . SVG Version: 6.00 Build 0)  -->
<svg version="1.1" id="Layer_1" xmlns="http://www.w3.org/2000/svg" xmlns:xlink="http://www.w3.org/1999/xlink" x="0px" y="0px"
	 viewBox="0 0 202 144" enable-background="new 0 0 202 144" xml:space="preserve">
<g>
	<rect x="0" fill="#009B3A" width="202" height="144"/>
	<path fill="#FEDF00" d="M17.17,72L101,126.514L184.83,72L101,17.486L17.17,72z"/>
	<ellipse fill="#002776" cx="101" cy="72" rx="35.35" ry="36"/>
	<g>
		<defs>
			<ellipse id="SVGID_1_" cx="101" cy="72" rx="35.35" ry="36"/>
		</defs>
		<clipPath id="SVGID_2_">
			<use xlink:href="#SVGID_1_"  overflow="visible"/>
		</clipPath>
		<path clip-path="url(#SVGID_2_)" fill="#FFFFFF" d="M-5.05,144c0-48.285,38.436-87.429,85.85-87.429S166.65,95.715,166.65,144
			h-5.05c0-45.445-36.175-82.286-80.8-82.286C36.176,61.714,0,98.555,0,144H-5.05z"/>
	</g>
	<g>
		<g transform="rotate(-7)">
			<path fill="#009B3A" d="M492.149-1410.413c-0.113-0.94-0.878-1.617-1.709-1.513c-0.83,0.104-1.412,0.95-1.299,1.89
				c0.113,0.94,0.878,1.617,1.709,1.513C491.681-1408.627,492.262-1409.473,492.149-1410.413z M490.645-1411.268
				c1.144,0,1.144,2.089,0,2.089C489.501-1409.179,489.501-1411.268,490.645-1411.268z"/>
		</g>
		<g>
			<g transform="rotate(2)">
				<path id="E" fill="#009B3A" d="M502.135-1409.146l3.028,0.108l0.022-0.636l-2.452-0.087l0.03-0.881l1.923,0.068l0.02-0.587
					l-1.923-0.068l0.024-0.685l2.307,0.082l0.022-0.636l-2.884-0.103L502.135-1409.146z"/>
			</g>
			<g transform="rotate(5)">
				<path id="M" fill="#009B3A" d="M506.406-1408.961l0.575,0.051l0.201-2.342l0.47,2.402l0.527,0.047l0.872-2.282l-0.201,2.342
					l0.575,0.051l0.293-3.416l-0.838-0.075l-0.872,2.282l-0.47-2.402l-0.838-0.075L506.406-1408.961z"/>
			</g>
			<g transform="rotate(9.75)">
				<path id="e" fill="#009B3A" d="M513.382-1408.16l2.489,0.436l0.098-0.579l-1.92-0.336l0.13-0.772l1.564,0.274l0.098-0.579
					l-1.564-0.274l0.09-0.531l1.86,0.326l0.098-0.579l-2.429-0.425L513.382-1408.16z"/>
			</g>
			<g>
				<g id="R_1_">
					<g transform="rotate(17.5)">
						<path id="P_2_" fill="#009B3A" d="M527.489-1407.073 M523.905-1405.759"/>
					</g>
				</g>
				<g>
					<g id="G">
						<g>
							<defs>
								<path id="SVGID_3_" d="M531.965-1402.862l1.343-3.144l2.779,1.23l-1.342,3.144L531.965-1402.862z M534.256-1404.358
									l-0.23,0.539l1.389,0.615l0.23-0.539L534.256-1404.358z"/>
							</defs>
							<clipPath id="SVGID_4_">
								<use xlink:href="#SVGID_3_"  overflow="visible"/>
							</clipPath>
						</g>
						<polygon fill="#009B3A" points="534.246,-1403.721 535.415,-1403.204 535.223,-1402.755 534.055,-1403.272 						"/>
						<polygon fill="#009B3A" points="534.974,-1403.399 535.415,-1403.204 534.744,-1401.632 534.303,-1401.827 						"/>
					</g>
					<g transform="translate(-420,1470)">
						<g transform="rotate(29.5)">
							<path id="E_1_" fill="#009B3A" d="M539.684-1399.124l2.637,1.52l0.308-0.554l-2.135-1.23l0.426-0.767l1.674,0.965
								l0.284-0.511l-1.675-0.965l0.332-0.597l2.009,1.158l0.308-0.554l-2.512-1.447L539.684-1399.124z"/>
						</g>
						<g transform="rotate(32.5)">
							<path id="S" fill="#009B3A" d="M544.596-1397.445c-0.181,0.289,0.002,0.612,0.408,0.875c0.405,0.263,0.682,0.254,0.799,0.068
								c0.368-0.589-1.761-1.447-1.105-2.473c0.566-0.882,1.534-0.196,1.899,0.041c0.365,0.237,0.951,0.85,0.495,1.556l-0.619-0.401
								c0.194-0.31-0.019-0.607-0.344-0.818c-0.315-0.204-0.57-0.297-0.757,0.002c-0.314,0.479,1.773,1.383,1.133,2.405
								c-0.472,0.754-1.292,0.425-1.84,0.069c-0.467-0.303-1.164-1.016-0.709-1.738L544.596-1397.445z"/>
						</g>
						<g transform="rotate(35.5)">
							<path id="S_1_" fill="#009B3A" d="M548.207-1395.013c-0.195,0.279-0.029,0.611,0.363,0.895
								c0.391,0.284,0.668,0.29,0.794,0.11c0.398-0.568-1.684-1.539-0.976-2.529c0.61-0.85,1.542-0.114,1.894,0.142
								c0.352,0.256,0.906,0.899,0.415,1.58l-0.597-0.434c0.21-0.299,0.012-0.608-0.301-0.835c-0.304-0.22-0.554-0.327-0.756-0.038
								c-0.338,0.462,1.699,1.475,1.008,2.462c-0.51,0.728-1.312,0.355-1.841-0.029c-0.45-0.327-1.11-1.076-0.619-1.773
								L548.207-1395.013z"/>
						</g>
					</g>
					<g>
						<g>
							<g>
								<g id="c">
									<path id="t" fill="#FFFFFF" d="M492.143-1406.008l-0.468,1.467l0.72,0.238"/>
									<g transform="scale(-1,1)">
										<path id="t_1_" fill="#FFFFFF" d="M492.143-1406.008l0.468,1.467l-0.72,0.238"/>
									</g>
								</g>
								<g>
									<g id="c_1_">
										<path id="t_2_" fill="#FFFFFF" d="M493.584-1404.942h-1.515v0.771"/>
										<g transform="rotate(72)">
											<path id="t_3_" fill="#FFFFFF" d="M493.584-1404.942l-1.225,0.907l-0.445-0.624"/>
										</g>
									</g>
									<g>
										<g id="c_2_">
											<path id="t_4_" fill="#FFFFFF" d="M490.702-1404.942l1.226,0.907l0.445-0.624"/>
											<g transform="rotate(-72)">
												<path id="t_5_" fill="#FFFFFF" d="M490.702-1404.942h1.515v0.771"/>
											</g>
										</g>
										<g>
											<g id="c_3_">
												<path id="t_6_" fill="#FFFFFF" d="M493.033-1403.217l-0.468-1.467l-0.72,0.238"/>
												<g transform="rotate(144)">
													<path id="t_7_" fill="#FFFFFF" d="M493.033-1403.217l-1.226-0.907l0.445-0.624"/>
												</g>
											</g>
											<g id="star">
												<g id="c_4_">
													<path id="t_8_" fill="#FFFFFF" d="M491.252-1403.217l1.226-0.907l-0.445-0.624"/>
													<g id="αCMi" transform="scale(31.5)">
														<path id="t_9_" fill="#FFFFFF" d="M491.252-1403.217l0.468-1.467l0.721,0.238"/>
													</g>
												</g>
											</g>
											<g>
												<g>
													<g>
														<g id="c_5_">
															<path id="t_10_" fill="#FFFFFF" d="M495.269-1390.873l-0.468,1.467l0.721,0.239"/>
															<g transform="scale(-1,1)">
																<path id="t_11_" fill="#FFFFFF" d="M495.269-1390.873l0.468,1.467l-0.721,0.239"/>
															</g>
														</g>
														<g>
															<g id="c_6_">
																<path id="t_12_" fill="#FFFFFF" d="M496.71-1389.807h-1.515v0.771"/>
																<g transform="rotate(72)">
																	<path id="t_13_" fill="#FFFFFF" d="M496.71-1389.807l-1.226,0.907l-0.445-0.624"/>
																</g>
															</g>
															<g>
																<g id="c_7_">
																	<path id="t_14_" fill="#FFFFFF" d="M493.828-1389.807l1.226,0.907l0.445-0.624"/>
																	<g transform="rotate(-72)">
																		<path id="t_15_" fill="#FFFFFF" d="M493.828-1389.807h1.515v0.771"/>
																	</g>
																</g>
																<g>
																	<g id="c_8_">
																		<path id="t_16_" fill="#FFFFFF" d="M496.16-1388.082l-0.468-1.467l-0.72,0.238"/>
																		<g transform="rotate(144)">
																			<path id="t_17_" fill="#FFFFFF" d="M496.16-1388.082l-1.226-0.907l0.445-0.624"/>
																		</g>
																	</g>
																	<g id="star_1_">
																		<g id="c_9_">
																			<path id="t_18_" fill="#FFFFFF" d="M494.379-1388.082l1.226-0.907l-0.445-0.624"/>
																			<g id="αCMa" transform="scale(31.5)">
																				<path id="t_19_" fill="#FFFFFF" d="M494.379-1388.082l0.468-1.467l0.721,0.238"/>
																			</g>
																		</g>
																	</g>
																	<g>
																		<g>
																			<g>
																				<g id="c_10_">
																					<path id="t_20_" fill="#FFFFFF" d="M490.941-1387.384l-0.39,1.223l0.6,0.199"/>
																					<g transform="scale(-1,1)">
																						<path id="t_21_" fill="#FFFFFF" d="M490.941-1387.384l0.39,1.223l-0.6,0.199"/>
																					</g>
																				</g>
																				<g>
																					<g id="c_11_">
																						<path id="t_22_" fill="#FFFFFF" d="M492.141-1386.495h-1.263v0.643"/>
																						<g transform="rotate(72)">
																							<path id="t_23_" fill="#FFFFFF" d="M492.141-1386.495l-1.021,0.756l-0.371-0.52"/>
																						</g>
																					</g>
																					<g>
																						<g id="c_12_">
																							<path id="t_24_" fill="#FFFFFF" d="M489.74-1386.495l1.021,0.756l0.371-0.52"/>
																							<g transform="rotate(-72)">
																								<path id="t_25_" fill="#FFFFFF" d="M489.74-1386.495h1.263v0.643"/>
																							</g>
																						</g>
																						<g>
																							<g id="c_13_">
																								<path id="t_26_" fill="#FFFFFF" d="M491.683-1385.058l-0.39-1.223l-0.601,0.199"/>
																								<g transform="rotate(144)">
																									<path id="t_27_" fill="#FFFFFF" d="M491.683-1385.058l-1.021-0.756l0.371-0.52"/>
																								</g>
																							</g>
																							<g id="star_2_">
																								<g id="c_14_">
																									<path id="t_28_" fill="#FFFFFF" d="M490.198-1385.058l1.021-0.756l-0.371-0.52"/>
																									<g id="βCMa" transform="scale(26.25)">
																										<path id="t_29_" fill="#FFFFFF" d="M490.198-1385.058l0.39-1.223l0.601,0.199"/>
																									</g>
																								</g>
																							</g>
																						</g>
																					</g>
																				</g>
																			</g>
																		</g>
																	</g>
																</g>
															</g>
														</g>
													</g>
												</g>
											</g>
										</g>
									</g>
								</g>
							</g>
						</g>
						<g id="c_22_">
							<path id="t_47_" fill="#FFFFFF" d="M521-1383.218l-0.468,1.467l0.721,0.239"/>
							<g transform="scale(-1,1)">
								<path id="t_46_" fill="#FFFFFF" d="M521-1383.218l0.468,1.467l-0.721,0.239"/>
							</g>
						</g>
						<g id="c_21_">
							<path id="t_43_" fill="#FFFFFF" d="M519.559-1382.152l1.226,0.907l0.445-0.624"/>
							<g transform="rotate(-72)">
								<path id="t_42_" fill="#FFFFFF" d="M519.559-1382.152h1.515v0.771"/>
							</g>
							<path id="t_45_" fill="#FFFFFF" d="M522.441-1382.152h-1.515v0.771"/>
							<path id="t_44_" fill="#FFFFFF" d="M522.441-1382.152l-1.226,0.907l-0.445-0.624"/>
						</g>
						<g id="c_20_">
							<path id="t_41_" fill="#FFFFFF" d="M521.89-1380.427l-0.468-1.467l-0.72,0.238"/>
							<g transform="rotate(144)">
								<path id="t_40_" fill="#FFFFFF" d="M521.89-1380.427l-1.226-0.907l0.445-0.624"/>
							</g>
						</g>
						<g id="star_3_">
							<g id="c_19_">
								<path id="t_39_" fill="#FFFFFF" d="M520.11-1380.427l1.226-0.907l-0.445-0.624"/>
								<g id="αCMa_1_" transform="scale(31.5)">
									<path id="t_38_" fill="#FFFFFF" d="M520.11-1380.427l0.468-1.467l0.721,0.238"/>
								</g>
							</g>
						</g>
						<g id="c_26_">
							<path id="t_57_" fill="#FFFFFF" d="M506.842-1380.632l-0.468,1.467l0.721,0.239"/>
							<g transform="scale(-1,1)">
								<path id="t_56_" fill="#FFFFFF" d="M506.842-1380.632l0.468,1.467l-0.721,0.239"/>
							</g>
						</g>
						<g id="c_25_">
							<path id="t_53_" fill="#FFFFFF" d="M505.401-1379.566l1.226,0.907l0.445-0.624"/>
							<g transform="rotate(-72)">
								<path id="t_52_" fill="#FFFFFF" d="M505.401-1379.566h1.515v0.772"/>
							</g>
							<path id="t_55_" fill="#FFFFFF" d="M508.283-1379.566h-1.515v0.772"/>
							<path id="t_54_" fill="#FFFFFF" d="M508.283-1379.566l-1.226,0.907l-0.445-0.624"/>
						</g>
						<g id="c_24_">
							<path id="t_51_" fill="#FFFFFF" d="M507.733-1377.841l-0.468-1.467l-0.72,0.238"/>
							<g transform="rotate(144)">
								<path id="t_50_" fill="#FFFFFF" d="M507.733-1377.841l-1.226-0.907l0.445-0.624"/>
							</g>
						</g>
						<g id="star_4_">
							<g id="c_23_">
								<path id="t_49_" fill="#FFFFFF" d="M505.952-1377.841l1.226-0.907l-0.445-0.624"/>
								<g id="αCMa_2_" transform="scale(31.5)">
									<path id="t_48_" fill="#FFFFFF" d="M505.952-1377.841l0.468-1.467l0.721,0.238"/>
								</g>
							</g>
						</g>
						<g id="c_30_">
							<path id="t_67_" fill="#FFFFFF" d="M545.763-1386.932l-0.468,1.467l0.721,0.239"/>
							<g transform="scale(-1,1)">
								<path id="t_66_" fill="#FFFFFF" d="M545.763-1386.932l0.468,1.467l-0.721,0.239"/>
							</g>
						</g>
						<g id="c_29_">
							<path id="t_63_" fill="#FFFFFF" d="M544.322-1385.867l1.226,0.907l0.445-0.624"/>
							<g transform="rotate(-72)">
								<path id="t_62_" fill="#FFFFFF" d="M544.322-1385.867h1.515v0.771"/>
							</g>
							<path id="t_65_" fill="#FFFFFF" d="M547.204-1385.867h-1.515v0.771"/>
							<path id="t_64_" fill="#FFFFFF" d="M547.204-1385.867l-1.226,0.907l-0.445-0.624"/>
						</g>
						<g id="c_28_">
							<path id="t_61_" fill="#FFFFFF" d="M546.654-1384.141l-0.468-1.467l-0.72,0.238"/>
							<g transform="rotate(144)">
								<path id="t_60_" fill="#FFFFFF" d="M546.654-1384.141l-1.226-0.907l0.445-0.624"/>
							</g>
						</g>
						<g id="star_5_">
							<g id="c_27_">
								<path id="t_59_" fill="#FFFFFF" d="M544.873-1384.141l1.226-0.907l-0.445-0.624"/>
								<g id="αCMa_3_" transform="scale(31.5)">
									<path id="t_58_" fill="#FFFFFF" d="M544.873-1384.141l0.468-1.467l0.721,0.238"/>
								</g>
							</g>
						</g>
						<g id="c_34_">
							<path id="t_77_" fill="#FFFFFF" d="M531.566-1375.066l-0.393,1.232l0.605,0.2"/>
							<g transform="scale(-1,1)">
								<path id="t_76_" fill="#FFFFFF" d="M531.566-1375.066l0.393,1.232l-0.605,0.2"/>
							</g>
						</g>
						<g id="c_33_">
							<path id="t_73_" fill="#FFFFFF" d="M530.356-1374.171l1.03,0.761l0.374-0.524"/>
							<g transform="rotate(-72)">
								<path id="t_72_" fill="#FFFFFF" d="M530.356-1374.171h1.273v0.648"/>
							</g>
							<path id="t_75_" fill="#FFFFFF" d="M532.777-1374.171h-1.273v0.648"/>
							<path id="t_74_" fill="#FFFFFF" d="M532.777-1374.171l-1.03,0.761l-0.374-0.524"/>
						</g>
						<g id="c_32_">
							<path id="t_71_" fill="#FFFFFF" d="M532.315-1372.722l-0.393-1.233l-0.605,0.2"/>
							<g transform="rotate(144)">
								<path id="t_70_" fill="#FFFFFF" d="M532.315-1372.722l-1.03-0.762l0.374-0.524"/>
							</g>
						</g>
						<g id="star_6_">
							<g id="c_31_">
								<path id="t_69_" fill="#FFFFFF" d="M530.818-1372.722l1.03-0.762l-0.374-0.524"/>
								<g id="αCMa_4_" transform="scale(31.5)">
									<path id="t_68_" fill="#FFFFFF" d="M530.818-1372.722l0.393-1.233l0.605,0.2"/>
								</g>
							</g>
						</g>
						<g id="c_38_">
							<path id="t_87_" fill="#FFFFFF" d="M538.648-1375.991l-0.393,1.232l0.605,0.2"/>
							<g transform="scale(-1,1)">
								<path id="t_86_" fill="#FFFFFF" d="M538.648-1375.991l0.393,1.232l-0.605,0.2"/>
							</g>
						</g>
						<g id="c_37_">
							<path id="t_83_" fill="#FFFFFF" d="M537.437-1375.095l1.03,0.761l0.374-0.524"/>
							<g transform="rotate(-72)">
								<path id="t_82_" fill="#FFFFFF" d="M537.437-1375.095h1.273v0.648"/>
							</g>
							<path id="t_85_" fill="#FFFFFF" d="M539.858-1375.095h-1.273v0.648"/>
							<path id="t_84_" fill="#FFFFFF" d="M539.858-1375.095l-1.03,0.761l-0.374-0.524"/>
						</g>
						<g id="c_36_">
							<path id="t_81_" fill="#FFFFFF" d="M539.396-1373.646l-0.393-1.233l-0.605,0.2"/>
							<g transform="rotate(144)">
								<path id="t_80_" fill="#FFFFFF" d="M539.396-1373.646l-1.03-0.762l0.374-0.524"/>
							</g>
						</g>
						<g id="star_7_">
							<g id="c_35_">
								<path id="t_79_" fill="#FFFFFF" d="M537.9-1373.646l1.03-0.762l-0.374-0.524"/>
								<g id="αCMa_5_" transform="scale(31.5)">
									<path id="t_78_" fill="#FFFFFF" d="M537.9-1373.646l0.393-1.233l0.605,0.2"/>
								</g>
							</g>
						</g>
						<g id="c_42_">
							<path id="t_97_" fill="#FFFFFF" d="M545.08-1380.616l-0.393,1.232l0.605,0.2"/>
							<g transform="scale(-1,1)">
								<path id="t_96_" fill="#FFFFFF" d="M545.08-1380.616l0.393,1.232l-0.605,0.2"/>
							</g>
						</g>
						<g id="c_41_">
							<path id="t_93_" fill="#FFFFFF" d="M543.869-1379.72l1.03,0.761l0.374-0.524"/>
							<g transform="rotate(-72)">
								<path id="t_92_" fill="#FFFFFF" d="M543.869-1379.72h1.273v0.648"/>
							</g>
							<path id="t_95_" fill="#FFFFFF" d="M546.29-1379.72h-1.273v0.648"/>
							<path id="t_94_" fill="#FFFFFF" d="M546.29-1379.72l-1.03,0.761l-0.374-0.524"/>
						</g>
						<g id="c_40_">
							<path id="t_91_" fill="#FFFFFF" d="M545.828-1378.271l-0.393-1.233l-0.605,0.2"/>
							<g transform="rotate(144)">
								<path id="t_90_" fill="#FFFFFF" d="M545.828-1378.271l-1.03-0.762l0.374-0.524"/>
							</g>
						</g>
						<g id="star_8_">
							<g id="c_39_">
								<path id="t_89_" fill="#FFFFFF" d="M544.332-1378.271l1.03-0.762l-0.374-0.524"/>
								<g id="αCMa_6_" transform="scale(31.5)">
									<path id="t_88_" fill="#FFFFFF" d="M544.332-1378.271l0.393-1.233l0.605,0.2"/>
								</g>
							</g>
						</g>
						<g id="c_46_">
							<path id="t_107_" fill="#FFFFFF" d="M547.204-1383.424l-0.393,1.232l0.605,0.2"/>
							<g transform="scale(-1,1)">
								<path id="t_106_" fill="#FFFFFF" d="M547.204-1383.424l0.393,1.232l-0.605,0.2"/>
							</g>
						</g>
						<g id="c_45_">
							<path id="t_103_" fill="#FFFFFF" d="M545.994-1382.529l1.03,0.761l0.374-0.524"/>
							<g transform="rotate(-72)">
								<path id="t_102_" fill="#FFFFFF" d="M545.994-1382.529h1.273v0.648"/>
							</g>
							<path id="t_105_" fill="#FFFFFF" d="M548.414-1382.529h-1.273v0.648"/>
							<path id="t_104_" fill="#FFFFFF" d="M548.414-1382.529l-1.03,0.761l-0.374-0.524"/>
						</g>
						<g id="c_44_">
							<path id="t_101_" fill="#FFFFFF" d="M547.952-1381.08l-0.393-1.233l-0.605,0.2"/>
							<g transform="rotate(144)">
								<path id="t_100_" fill="#FFFFFF" d="M547.952-1381.08l-1.03-0.762l0.374-0.524"/>
							</g>
						</g>
						<g id="star_9_">
							<g id="c_43_">
								<path id="t_99_" fill="#FFFFFF" d="M546.456-1381.08l1.03-0.762l-0.374-0.524"/>
								<g id="αCMa_7_" transform="scale(31.5)">
									<path id="t_98_" fill="#FFFFFF" d="M546.456-1381.08l0.393-1.233l0.605,0.2"/>
								</g>
							</g>
						</g>
						<g id="c_50_">
							<path id="t_117_" fill="#FFFFFF" d="M525.086-1390.238l-0.393,1.232l0.605,0.2"/>
							<g transform="scale(-1,1)">
								<path id="t_116_" fill="#FFFFFF" d="M525.086-1390.238l0.393,1.232l-0.605,0.2"/>
							</g>
						</g>
						<g id="c_49_">
							<path id="t_113_" fill="#FFFFFF" d="M523.875-1389.343l1.03,0.761l0.374-0.524"/>
							<g transform="rotate(-72)">
								<path id="t_112_" fill="#FFFFFF" d="M523.875-1389.343h1.273v0.648"/>
							</g>
							<path id="t_115_" fill="#FFFFFF" d="M526.296-1389.343h-1.273v0.648"/>
							<path id="t_114_" fill="#FFFFFF" d="M526.296-1389.343l-1.03,0.761l-0.374-0.524"/>
						</g>
						<g id="c_48_">
							<path id="t_111_" fill="#FFFFFF" d="M525.834-1387.894l-0.393-1.233l-0.605,0.2"/>
							<g transform="rotate(144)">
								<path id="t_110_" fill="#FFFFFF" d="M525.834-1387.894l-1.03-0.762l0.374-0.524"/>
							</g>
						</g>
						<g id="star_10_">
							<g id="c_47_">
								<path id="t_109_" fill="#FFFFFF" d="M524.338-1387.894l1.03-0.762l-0.374-0.524"/>
								<g id="αCMa_8_" transform="scale(31.5)">
									<path id="t_108_" fill="#FFFFFF" d="M524.338-1387.894l0.393-1.233l0.605,0.2"/>
								</g>
							</g>
						</g>
						<g id="c_54_">
							<path id="t_127_" fill="#FFFFFF" d="M521-1393.385l-0.393,1.232l0.605,0.2"/>
							<g transform="scale(-1,1)">
								<path id="t_126_" fill="#FFFFFF" d="M521-1393.385l0.393,1.232l-0.605,0.2"/>
							</g>
						</g>
						<g id="c_53_">
							<path id="t_123_" fill="#FFFFFF" d="M519.79-1392.489l1.03,0.761l0.374-0.524"/>
							<g transform="rotate(-72)">
								<path id="t_122_" fill="#FFFFFF" d="M519.79-1392.489h1.273v0.648"/>
							</g>
							<path id="t_125_" fill="#FFFFFF" d="M522.21-1392.489h-1.273v0.648"/>
							<path id="t_124_" fill="#FFFFFF" d="M522.21-1392.489l-1.03,0.761l-0.374-0.524"/>
						</g>
						<g id="c_52_">
							<path id="t_121_" fill="#FFFFFF" d="M521.749-1391.04l-0.393-1.233l-0.605,0.2"/>
							<g transform="rotate(144)">
								<path id="t_120_" fill="#FFFFFF" d="M521.749-1391.04l-1.03-0.762l0.374-0.524"/>
							</g>
						</g>
						<g id="star_11_">
							<g id="c_51_">
								<path id="t_119_" fill="#FFFFFF" d="M520.252-1391.04l1.03-0.762l-0.374-0.524"/>
								<g id="αCMa_9_" transform="scale(31.5)">
									<path id="t_118_" fill="#FFFFFF" d="M520.252-1391.04l0.393-1.233l0.605,0.2"/>
								</g>
							</g>
						</g>
						<g id="c_58_">
							<path id="t_137_" fill="#FFFFFF" d="M532.081-1410.531l-0.393,1.233l0.605,0.2"/>
							<g transform="scale(-1,1)">
								<path id="t_136_" fill="#FFFFFF" d="M532.081-1410.531l0.393,1.233l-0.605,0.2"/>
							</g>
						</g>
						<g id="c_57_">
							<path id="t_133_" fill="#FFFFFF" d="M530.871-1409.635l1.03,0.761l0.374-0.524"/>
							<g transform="rotate(-72)">
								<path id="t_132_" fill="#FFFFFF" d="M530.871-1409.635h1.273v0.648"/>
							</g>
							<path id="t_135_" fill="#FFFFFF" d="M533.291-1409.635h-1.273v0.648"/>
							<path id="t_134_" fill="#FFFFFF" d="M533.291-1409.635l-1.03,0.761l-0.374-0.524"/>
						</g>
						<g id="c_56_">
							<path id="t_131_" fill="#FFFFFF" d="M532.829-1408.187l-0.393-1.233l-0.605,0.2"/>
							<g transform="rotate(144)">
								<path id="t_130_" fill="#FFFFFF" d="M532.829-1408.187l-1.03-0.762l0.374-0.524"/>
							</g>
						</g>
						<g id="star_12_">
							<g id="c_55_">
								<path id="t_129_" fill="#FFFFFF" d="M531.333-1408.187l1.03-0.762l-0.374-0.524"/>
								<g id="αCMa_10_" transform="scale(31.5)">
									<path id="t_128_" fill="#FFFFFF" d="M531.333-1408.187l0.393-1.233l0.605,0.2"/>
								</g>
							</g>
						</g>
						<g id="c_18_">
							<path id="t_139_" fill="#FFFFFF" d="M507.555-1397.822l-0.382,1.198l0.588,0.195"/>
							<g transform="scale(-1,1)">
								<path id="t_138_" fill="#FFFFFF" d="M507.555-1397.822l0.382,1.198l-0.588,0.195"/>
							</g>
						</g>
						<g id="c_17_">
							<path id="t_35_" fill="#FFFFFF" d="M506.379-1396.952l1.001,0.741l0.364-0.51"/>
							<g transform="rotate(-72)">
								<path id="t_34_" fill="#FFFFFF" d="M506.379-1396.952h1.237v0.63"/>
							</g>
							<path id="t_37_" fill="#FFFFFF" d="M508.732-1396.952h-1.237v0.63"/>
							<path id="t_36_" fill="#FFFFFF" d="M508.732-1396.952l-1.001,0.741l-0.364-0.51"/>
						</g>
						<g id="c_16_">
							<path id="t_33_" fill="#FFFFFF" d="M508.282-1395.543l-0.382-1.198l-0.588,0.195"/>
							<g transform="rotate(144)">
								<path id="t_32_" fill="#FFFFFF" d="M508.282-1395.543l-1.001-0.741l0.364-0.509"/>
							</g>
						</g>
						<g id="star_13_">
							<g id="c_15_">
								<path id="t_31_" fill="#FFFFFF" d="M506.828-1395.543l1.001-0.741l-0.364-0.509"/>
								<g id="αCMa_11_" transform="scale(31.5)">
									<path id="t_30_" fill="#FFFFFF" d="M506.828-1395.543l0.382-1.198l0.588,0.195"/>
								</g>
							</g>
						</g>
						<g id="c_62_">
							<path id="t_149_" fill="#FFFFFF" d="M550.713-1386.061l-0.324,1.015l0.499,0.165"/>
							<g transform="scale(-1,1)">
								<path id="t_148_" fill="#FFFFFF" d="M550.713-1386.061l0.324,1.015l-0.498,0.165"/>
							</g>
						</g>
						<g id="c_61_">
							<path id="t_145_" fill="#FFFFFF" d="M549.716-1385.323l0.848,0.628l0.308-0.432"/>
							<g transform="rotate(-72)">
								<path id="t_144_" fill="#FFFFFF" d="M549.716-1385.323h1.049v0.534"/>
							</g>
							<path id="t_147_" fill="#FFFFFF" d="M551.71-1385.323h-1.049v0.534"/>
							<path id="t_146_" fill="#FFFFFF" d="M551.71-1385.323l-0.849,0.628l-0.308-0.432"/>
						</g>
						<g id="c_60_">
							<path id="t_143_" fill="#FFFFFF" d="M551.329-1384.13l-0.324-1.015l-0.499,0.165"/>
							<g transform="rotate(144)">
								<path id="t_142_" fill="#FFFFFF" d="M551.329-1384.13l-0.848-0.627l0.308-0.432"/>
							</g>
						</g>
						<g id="star_14_">
							<g id="c_59_">
								<path id="t_141_" fill="#FFFFFF" d="M550.097-1384.13l0.848-0.627l-0.308-0.432"/>
								<g id="αCMa_12_" transform="scale(31.5)">
									<path id="t_140_" fill="#FFFFFF" d="M550.097-1384.13l0.324-1.015l0.499,0.165"/>
								</g>
							</g>
						</g>
						<g id="c_66_">
							<path id="t_159_" fill="#FFFFFF" d="M530.68-1400.868l-0.324,1.015l0.499,0.165"/>
							<g transform="scale(-1,1)">
								<path id="t_158_" fill="#FFFFFF" d="M530.68-1400.868l0.324,1.015l-0.498,0.165"/>
							</g>
						</g>
						<g id="c_65_">
							<path id="t_155_" fill="#FFFFFF" d="M529.683-1400.131l0.848,0.628l0.308-0.432"/>
							<g transform="rotate(-72)">
								<path id="t_154_" fill="#FFFFFF" d="M529.683-1400.131h1.049v0.534"/>
							</g>
							<path id="t_157_" fill="#FFFFFF" d="M531.677-1400.131h-1.049v0.534"/>
							<path id="t_156_" fill="#FFFFFF" d="M531.677-1400.131l-0.849,0.628l-0.308-0.432"/>
						</g>
						<g id="c_64_">
							<path id="t_153_" fill="#FFFFFF" d="M531.296-1398.937l-0.324-1.015l-0.499,0.165"/>
							<g transform="rotate(144)">
								<path id="t_152_" fill="#FFFFFF" d="M531.296-1398.937l-0.848-0.628l0.308-0.432"/>
							</g>
						</g>
						<g id="star_15_">
							<g id="c_63_">
								<path id="t_151_" fill="#FFFFFF" d="M530.064-1398.937l0.848-0.628l-0.308-0.432"/>
								<g id="αCMa_13_" transform="scale(31.5)">
									<path id="t_150_" fill="#FFFFFF" d="M530.064-1398.937l0.324-1.015l0.499,0.165"/>
								</g>
							</g>
						</g>
						<g id="c_70_">
							<path id="t_169_" fill="#FFFFFF" d="M538.557-1379.237l-0.324,1.015l0.499,0.165"/>
							<g transform="scale(-1,1)">
								<path id="t_168_" fill="#FFFFFF" d="M538.557-1379.237l0.324,1.015l-0.498,0.165"/>
							</g>
						</g>
						<g id="c_69_">
							<path id="t_165_" fill="#FFFFFF" d="M537.56-1378.499l0.848,0.627l0.308-0.432"/>
							<g transform="rotate(-72)">
								<path id="t_164_" fill="#FFFFFF" d="M537.56-1378.499h1.049v0.534"/>
							</g>
							<path id="t_167_" fill="#FFFFFF" d="M539.554-1378.499h-1.049v0.534"/>
							<path id="t_166_" fill="#FFFFFF" d="M539.554-1378.499l-0.849,0.627l-0.308-0.432"/>
						</g>
						<g id="c_68_">
							<path id="t_163_" fill="#FFFFFF" d="M539.173-1377.306l-0.324-1.015l-0.499,0.165"/>
							<g transform="rotate(144)">
								<path id="t_162_" fill="#FFFFFF" d="M539.173-1377.306l-0.848-0.628l0.308-0.432"/>
							</g>
						</g>
						<g id="star_16_">
							<g id="c_67_">
								<path id="t_161_" fill="#FFFFFF" d="M537.941-1377.306l0.848-0.628l-0.308-0.432"/>
								<g id="αCMa_14_" transform="scale(31.5)">
									<path id="t_160_" fill="#FFFFFF" d="M537.941-1377.306l0.324-1.015l0.499,0.165"/>
								</g>
							</g>
						</g>
						<g id="c_74_">
							<path id="t_179_" fill="#FFFFFF" d="M542.251-1378.593l-0.324,1.015l0.499,0.165"/>
							<g transform="scale(-1,1)">
								<path id="t_178_" fill="#FFFFFF" d="M542.251-1378.593l0.324,1.015l-0.498,0.165"/>
							</g>
						</g>
						<g id="c_73_">
							<path id="t_175_" fill="#FFFFFF" d="M541.253-1377.855l0.848,0.627l0.308-0.432"/>
							<g transform="rotate(-72)">
								<path id="t_174_" fill="#FFFFFF" d="M541.253-1377.855h1.049v0.534"/>
							</g>
							<path id="t_177_" fill="#FFFFFF" d="M543.248-1377.855h-1.049v0.534"/>
							<path id="t_176_" fill="#FFFFFF" d="M543.248-1377.855l-0.849,0.627l-0.308-0.432"/>
						</g>
						<g id="c_72_">
							<path id="t_173_" fill="#FFFFFF" d="M542.867-1376.662l-0.324-1.015l-0.499,0.165"/>
							<g transform="rotate(144)">
								<path id="t_172_" fill="#FFFFFF" d="M542.867-1376.662l-0.848-0.627l0.308-0.432"/>
							</g>
						</g>
						<g id="star_17_">
							<g id="c_71_">
								<path id="t_171_" fill="#FFFFFF" d="M541.635-1376.662l0.848-0.627l-0.308-0.432"/>
								<g id="αCMa_15_" transform="scale(31.5)">
									<path id="t_170_" fill="#FFFFFF" d="M541.635-1376.662l0.324-1.015l0.499,0.165"/>
								</g>
							</g>
						</g>
						<g id="c_78_">
							<path id="t_189_" fill="#FFFFFF" d="M538.732-1372.073l-0.324,1.015l0.499,0.165"/>
							<g transform="scale(-1,1)">
								<path id="t_188_" fill="#FFFFFF" d="M538.732-1372.073l0.324,1.015l-0.498,0.165"/>
							</g>
						</g>
						<g id="c_77_">
							<path id="t_185_" fill="#FFFFFF" d="M537.735-1371.335l0.848,0.627l0.308-0.432"/>
							<g transform="rotate(-72)">
								<path id="t_184_" fill="#FFFFFF" d="M537.735-1371.335h1.049v0.534"/>
							</g>
							<path id="t_187_" fill="#FFFFFF" d="M539.729-1371.335h-1.049v0.534"/>
							<path id="t_186_" fill="#FFFFFF" d="M539.729-1371.335l-0.849,0.627l-0.308-0.432"/>
						</g>
						<g id="c_76_">
							<path id="t_183_" fill="#FFFFFF" d="M539.348-1370.142l-0.324-1.015l-0.499,0.165"/>
							<g transform="rotate(144)">
								<path id="t_182_" fill="#FFFFFF" d="M539.348-1370.142l-0.848-0.628l0.308-0.432"/>
							</g>
						</g>
						<g id="star_18_">
							<g id="c_75_">
								<path id="t_181_" fill="#FFFFFF" d="M538.116-1370.142l0.848-0.628l-0.308-0.432"/>
								<g id="αCMa_16_" transform="scale(31.5)">
									<path id="t_180_" fill="#FFFFFF" d="M538.116-1370.142l0.324-1.015l0.499,0.165"/>
								</g>
							</g>
						</g>
						<g id="c_82_">
							<path id="t_199_" fill="#FFFFFF" d="M534.626-1378.042l-0.324,1.015l0.499,0.165"/>
							<g transform="scale(-1,1)">
								<path id="t_198_" fill="#FFFFFF" d="M534.626-1378.042l0.324,1.015l-0.498,0.165"/>
							</g>
						</g>
						<g id="c_81_">
							<path id="t_195_" fill="#FFFFFF" d="M533.629-1377.304l0.848,0.628l0.308-0.432"/>
							<g transform="rotate(-72)">
								<path id="t_194_" fill="#FFFFFF" d="M533.629-1377.304h1.049v0.534"/>
							</g>
							<path id="t_197_" fill="#FFFFFF" d="M535.623-1377.304h-1.049v0.534"/>
							<path id="t_196_" fill="#FFFFFF" d="M535.623-1377.304l-0.849,0.628l-0.308-0.432"/>
						</g>
						<g id="c_80_">
							<path id="t_193_" fill="#FFFFFF" d="M535.242-1376.111l-0.324-1.015l-0.499,0.165"/>
							<g transform="rotate(144)">
								<path id="t_192_" fill="#FFFFFF" d="M535.242-1376.111l-0.848-0.628l0.308-0.432"/>
							</g>
						</g>
						<g id="star_19_">
							<g id="c_79_">
								<path id="t_191_" fill="#FFFFFF" d="M534.01-1376.111l0.848-0.628l-0.308-0.432"/>
								<g id="αCMa_17_" transform="scale(31.5)">
									<path id="t_190_" fill="#FFFFFF" d="M534.01-1376.111l0.324-1.015l0.499,0.165"/>
								</g>
							</g>
						</g>
						<g id="c_86_">
							<path id="t_209_" fill="#FFFFFF" d="M528.783-1378.86l-0.324,1.015l0.499,0.165"/>
							<g transform="scale(-1,1)">
								<path id="t_208_" fill="#FFFFFF" d="M528.783-1378.86l0.324,1.015l-0.498,0.165"/>
							</g>
						</g>
						<g id="c_85_">
							<path id="t_205_" fill="#FFFFFF" d="M527.786-1378.122l0.848,0.627l0.308-0.432"/>
							<g transform="rotate(-72)">
								<path id="t_204_" fill="#FFFFFF" d="M527.786-1378.122h1.049v0.534"/>
							</g>
							<path id="t_207_" fill="#FFFFFF" d="M529.78-1378.122h-1.049v0.534"/>
							<path id="t_206_" fill="#FFFFFF" d="M529.78-1378.122l-0.849,0.627l-0.308-0.432"/>
						</g>
						<g id="c_84_">
							<path id="t_203_" fill="#FFFFFF" d="M529.399-1376.929l-0.324-1.015l-0.499,0.165"/>
							<g transform="rotate(144)">
								<path id="t_202_" fill="#FFFFFF" d="M529.399-1376.929l-0.848-0.628l0.308-0.432"/>
							</g>
						</g>
						<g id="star_20_">
							<g id="c_83_">
								<path id="t_201_" fill="#FFFFFF" d="M528.167-1376.929l0.848-0.628l-0.308-0.432"/>
								<g id="αCMa_18_" transform="scale(31.5)">
									<path id="t_200_" fill="#FFFFFF" d="M528.167-1376.929l0.324-1.015l0.499,0.165"/>
								</g>
							</g>
						</g>
						<g id="c_90_">
							<path id="t_219_" fill="#FFFFFF" d="M502.71-1387.003l-0.353,1.105l0.543,0.179"/>
							<g transform="scale(-1,1)">
								<path id="t_218_" fill="#FFFFFF" d="M502.71-1387.003l0.353,1.105l-0.542,0.179"/>
							</g>
						</g>
						<g id="c_89_">
							<path id="t_215_" fill="#FFFFFF" d="M501.625-1386.2l0.923,0.683l0.335-0.47"/>
							<g transform="rotate(-72)">
								<path id="t_214_" fill="#FFFFFF" d="M501.625-1386.2h1.141v0.581"/>
							</g>
							<path id="t_217_" fill="#FFFFFF" d="M503.795-1386.2h-1.141v0.581"/>
							<path id="t_216_" fill="#FFFFFF" d="M503.795-1386.2l-0.923,0.683l-0.335-0.47"/>
						</g>
						<g id="c_88_">
							<path id="t_213_" fill="#FFFFFF" d="M503.381-1384.901l-0.353-1.105l-0.543,0.18"/>
							<g transform="rotate(144)">
								<path id="t_212_" fill="#FFFFFF" d="M503.381-1384.901l-0.923-0.683l0.335-0.47"/>
							</g>
						</g>
						<g id="star_21_">
							<g id="c_87_">
								<path id="t_211_" fill="#FFFFFF" d="M502.039-1384.901l0.923-0.683l-0.336-0.47"/>
								<g id="αCMa_19_" transform="scale(31.5)">
									<path id="t_210_" fill="#FFFFFF" d="M502.039-1384.901l0.352-1.105l0.543,0.18"/>
								</g>
							</g>
						</g>
						<g id="c_94_">
							<path id="t_229_" fill="#FFFFFF" d="M501.625-1383.171l-0.324,1.015l0.499,0.165"/>
							<g transform="scale(-1,1)">
								<path id="t_228_" fill="#FFFFFF" d="M501.625-1383.171l0.324,1.015l-0.498,0.165"/>
							</g>
						</g>
						<g id="c_93_">
							<path id="t_225_" fill="#FFFFFF" d="M500.627-1382.433l0.848,0.627l0.308-0.432"/>
							<g transform="rotate(-72)">
								<path id="t_224_" fill="#FFFFFF" d="M500.627-1382.433h1.049v0.534"/>
							</g>
							<path id="t_227_" fill="#FFFFFF" d="M502.622-1382.433h-1.049v0.534"/>
							<path id="t_226_" fill="#FFFFFF" d="M502.622-1382.433l-0.849,0.627l-0.308-0.432"/>
						</g>
						<g id="c_92_">
							<path id="t_223_" fill="#FFFFFF" d="M502.241-1381.239l-0.324-1.015l-0.499,0.165"/>
							<g transform="rotate(144)">
								<path id="t_222_" fill="#FFFFFF" d="M502.241-1381.239l-0.848-0.628l0.308-0.432"/>
							</g>
						</g>
						<g id="star_22_">
							<g id="c_91_">
								<path id="t_221_" fill="#FFFFFF" d="M501.009-1381.239l0.848-0.628l-0.308-0.432"/>
								<g id="αCMa_20_" transform="scale(31.5)">
									<path id="t_220_" fill="#FFFFFF" d="M501.009-1381.239l0.324-1.015l0.499,0.165"/>
								</g>
							</g>
						</g>
						<g id="c_98_">
							<path id="t_239_" fill="#FFFFFF" d="M517.427-1389.985l-0.324,1.015l0.499,0.165"/>
							<g transform="scale(-1,1)">
								<path id="t_238_" fill="#FFFFFF" d="M517.427-1389.985l0.324,1.015l-0.498,0.165"/>
							</g>
						</g>
						<g id="c_97_">
							<path id="t_235_" fill="#FFFFFF" d="M516.43-1389.247l0.848,0.628l0.308-0.432"/>
							<g transform="rotate(-72)">
								<path id="t_234_" fill="#FFFFFF" d="M516.43-1389.247h1.049v0.534"/>
							</g>
							<path id="t_237_" fill="#FFFFFF" d="M518.424-1389.247h-1.049v0.534"/>
							<path id="t_236_" fill="#FFFFFF" d="M518.424-1389.247l-0.849,0.628l-0.308-0.432"/>
						</g>
						<g id="c_96_">
							<path id="t_233_" fill="#FFFFFF" d="M518.043-1388.053l-0.324-1.015l-0.499,0.165"/>
							<g transform="rotate(144)">
								<path id="t_232_" fill="#FFFFFF" d="M518.043-1388.053l-0.848-0.627l0.308-0.432"/>
							</g>
						</g>
						<g id="star_23_">
							<g id="c_95_">
								<path id="t_231_" fill="#FFFFFF" d="M516.811-1388.053l0.848-0.627l-0.308-0.432"/>
								<g id="αCMa_21_" transform="scale(31.5)">
									<path id="t_230_" fill="#FFFFFF" d="M516.811-1388.053l0.324-1.015l0.499,0.165"/>
								</g>
							</g>
						</g>
						<g id="c_102_">
							<path id="t_249_" fill="#FFFFFF" d="M498.703-1392.133l-0.197,0.618l0.303,0.1"/>
							<g transform="scale(-1,1)">
								<path id="t_248_" fill="#FFFFFF" d="M498.703-1392.133l0.197,0.618l-0.303,0.1"/>
							</g>
						</g>
						<g id="c_101_">
							<path id="t_245_" fill="#FFFFFF" d="M498.096-1391.685l0.516,0.382l0.187-0.263"/>
							<g transform="rotate(-72)">
								<path id="t_244_" fill="#FFFFFF" d="M498.096-1391.685h0.638v0.325"/>
							</g>
							<path id="t_247_" fill="#FFFFFF" d="M499.31-1391.685h-0.638v0.325"/>
							<path id="t_246_" fill="#FFFFFF" d="M499.31-1391.685l-0.516,0.382l-0.187-0.263"/>
						</g>
						<g id="c_100_">
							<path id="t_243_" fill="#FFFFFF" d="M499.078-1390.959l-0.197-0.617l-0.303,0.1"/>
							<g transform="rotate(144)">
								<path id="t_242_" fill="#FFFFFF" d="M499.078-1390.959l-0.516-0.382l0.188-0.263"/>
							</g>
						</g>
						<g id="star_24_">
							<g id="c_99_">
								<path id="t_241_" fill="#FFFFFF" d="M498.328-1390.959l0.516-0.382l-0.187-0.263"/>
								<g id="αCMa_22_" transform="scale(31.5)">
									<path id="t_240_" fill="#FFFFFF" d="M498.328-1390.959l0.197-0.617l0.303,0.1"/>
								</g>
							</g>
						</g>
						<g id="c_106_">
							<path id="t_259_" fill="#FFFFFF" d="M519.197-1387.213l-0.197,0.617l0.303,0.1"/>
							<g transform="scale(-1,1)">
								<path id="t_258_" fill="#FFFFFF" d="M519.197-1387.213l0.197,0.617l-0.303,0.1"/>
							</g>
						</g>
						<g id="c_105_">
							<path id="t_255_" fill="#FFFFFF" d="M518.59-1386.765l0.516,0.382l0.187-0.263"/>
							<g transform="rotate(-72)">
								<path id="t_254_" fill="#FFFFFF" d="M518.59-1386.765h0.638v0.325"/>
							</g>
							<path id="t_257_" fill="#FFFFFF" d="M519.803-1386.765h-0.638v0.325"/>
							<path id="t_256_" fill="#FFFFFF" d="M519.803-1386.765l-0.516,0.382l-0.187-0.263"/>
						</g>
						<g id="c_104_">
							<path id="t_253_" fill="#FFFFFF" d="M519.571-1386.039l-0.197-0.617l-0.303,0.1"/>
							<g transform="rotate(144)">
								<path id="t_252_" fill="#FFFFFF" d="M519.571-1386.039l-0.516-0.382l0.188-0.263"/>
							</g>
						</g>
						<g id="star_25_">
							<g id="c_103_">
								<path id="t_251_" fill="#FFFFFF" d="M518.822-1386.039l0.516-0.382l-0.187-0.263"/>
								<g id="αCMa_23_" transform="scale(31.5)">
									<path id="t_250_" fill="#FFFFFF" d="M518.822-1386.039l0.197-0.617l0.303,0.1"/>
								</g>
							</g>
						</g>
						<g id="c_110_">
							<path id="t_269_" fill="#FFFFFF" d="M520.978-1370.333l-0.15,0.47l0.231,0.077"/>
							<g transform="scale(-1,1)">
								<path id="t_268_" fill="#FFFFFF" d="M520.978-1370.333l0.15,0.47l-0.231,0.077"/>
							</g>
						</g>
						<g id="c_109_">
							<path id="t_265_" fill="#FFFFFF" d="M520.515-1369.991l0.393,0.291l0.143-0.2"/>
							<g transform="rotate(-72)">
								<path id="t_264_" fill="#FFFFFF" d="M520.515-1369.991h0.486v0.248"/>
							</g>
							<path id="t_267_" fill="#FFFFFF" d="M521.44-1369.991h-0.486v0.248"/>
							<path id="t_266_" fill="#FFFFFF" d="M521.44-1369.991l-0.393,0.291l-0.143-0.2"/>
						</g>
						<g id="c_108_">
							<path id="t_263_" fill="#FFFFFF" d="M521.263-1369.438l-0.15-0.47l-0.231,0.076"/>
							<g transform="rotate(144)">
								<path id="t_262_" fill="#FFFFFF" d="M521.263-1369.438l-0.393-0.291l0.143-0.2"/>
							</g>
						</g>
						<g id="star_26_">
							<g id="c_107_">
								<path id="t_261_" fill="#FFFFFF" d="M520.692-1369.438l0.393-0.291l-0.143-0.2"/>
								<g id="αCMa_24_" transform="scale(31.5)">
									<path id="t_260_" fill="#FFFFFF" d="M520.692-1369.438l0.15-0.47l0.231,0.076"/>
								</g>
							</g>
						</g>
					</g>
					<g transform="rotate(-7)">
						<path fill="#009B3A" d="M554.18-1391.616c0.428-0.841,0.172-1.84-0.571-2.232c-0.743-0.392-1.692-0.028-2.12,0.812
							c-0.428,0.841-0.172,1.84,0.571,2.232C552.804-1390.412,553.753-1390.776,554.18-1391.616z M553.414-1393.187
							c0.944,0.659-0.215,2.383-1.159,1.724C551.311-1392.121,552.47-1393.845,553.414-1393.187z"/>
					</g>
				</g>
			</g>
			<path fill="#009B3A" d="M500.604-1411.921c-0.371-0.608-1.119-0.637-1.119-0.637l-1.683,0.027l0.059,3.428
				c0,0,1.335,0.001,1.69-0.034c0.355-0.034,0.772-0.243,1.044-0.607c0.272-0.365,0.269-0.796,0.267-1.062
				C500.86-1411.071,500.901-1411.433,500.604-1411.921z M499.231-1409.755c-0.258,0-0.756,0.004-0.756,0.004
				s-0.03-1.731-0.037-2.155c0.696-0.009,0.72-0.009,0.99-0.009c0.5,0.009,0.71,0.388,0.815,0.634
				c0.038,0.273,0.04,0.384,0.048,0.62c-0.031,0.255-0.105,0.464-0.316,0.665C499.63-1409.759,499.454-1409.754,499.231-1409.755z"
				/>
			<path fill="#009B3A" d="M496.006-1410.436c0,0,0.352-0.303,0.443-0.737c0.091-0.434-0.173-0.789-0.285-0.89
				c-0.112-0.102-0.347-0.342-0.694-0.329c-0.347,0.014-2.063,0.136-2.063,0.136l0.187,3.424l0.624-0.044l-0.087-1.27l1.083-0.077
				l0.26-0.019c0,0,0.335,0.559,0.367,0.903c0.022,0.203,0.019,0.375,0.019,0.375h0.608c0,0,0.015-0.61-0.158-0.975
				C496.136-1410.304,496.006-1410.436,496.006-1410.436z M495.627-1410.969c-0.132,0.112-0.5,0.116-0.5,0.116l-1.041,0.07
				c0,0-0.041-0.598-0.061-0.879c0.158,0.001,0.986-0.07,1.001-0.07c0.167-0.005,0.355-0.022,0.355-0.022s0.136,0.005,0.272,0.125
				c0.026,0.018,0.14,0.121,0.136,0.295S495.687-1411.003,495.627-1410.969z"/>
		</g>
		<g transform="rotate(-7)">
			<path fill="#009B3A" d="M531.565-1405.222c0.127-0.938-0.441-1.793-1.27-1.909s-1.604,0.549-1.731,1.487
				c-0.127,0.938,0.441,1.793,1.27,1.909C530.662-1403.619,531.437-1404.284,531.565-1405.222z M530.327-1406.442
				c1.106,0.299,0.58,2.318-0.526,2.019C528.694-1404.721,529.221-1406.741,530.327-1406.442z"/>
		</g>
		<path fill="#009B3A" d="M526.727-1406.552c0,0,0.43-0.17,0.655-0.55c0.225-0.38,0.09-0.803,0.016-0.936
			c-0.073-0.133-0.217-0.439-0.55-0.542c-0.332-0.103-1.992-0.559-1.992-0.559l-0.923,3.298l0.604,0.166l0.325-1.229l1.048,0.288
			l0.252,0.069c0,0,0.137,0.64,0.057,0.976c-0.045,0.199-0.103,0.361-0.103,0.361l0.574,0.202c0,0,0.21-0.571,0.164-0.974
			C526.808-1406.384,526.727-1406.552,526.727-1406.552z M526.54-1407.182c-0.16,0.062-0.51-0.057-0.51-0.057l-1.006-0.28
			c0,0,0.153-0.579,0.225-0.851c0.148,0.054,0.954,0.262,0.968,0.267c0.159,0.051,0.342,0.097,0.342,0.097s0.127,0.049,0.217,0.209
			c0.019,0.025,0.094,0.161,0.034,0.324C526.751-1407.311,526.608-1407.194,526.54-1407.182z"/>
		<path fill="#009B3A" d="M538.955-1401.506c0,0,0.442-0.132,0.698-0.491c0.256-0.359,0.156-0.792,0.095-0.932
			c-0.062-0.139-0.18-0.456-0.503-0.587c-0.323-0.131-1.939-0.729-1.939-0.729l-1.194,3.206l0.587,0.217l0.427-1.197l1.02,0.377
			l0.245,0.091c0,0,0.084,0.649-0.024,0.977c-0.061,0.195-0.133,0.351-0.133,0.351l0.555,0.251c0,0,0.257-0.551,0.245-0.956
			C539.022-1401.332,538.955-1401.506,538.955-1401.506z M538.821-1402.15c-0.165,0.047-0.503-0.1-0.503-0.1l-0.979-0.366
			c0,0,0.201-0.563,0.295-0.829c0.144,0.066,0.929,0.344,0.943,0.35c0.155,0.064,0.333,0.126,0.333,0.126s0.122,0.06,0.199,0.227
			c0.016,0.027,0.08,0.168,0.007,0.326C539.042-1402.26,538.89-1402.156,538.821-1402.15z"/>
		<path fill="#009B3A" d="M522.585-1407.696c0,0,0.426-0.18,0.642-0.565s0.07-0.805-0.005-0.936
			c-0.076-0.131-0.228-0.433-0.563-0.528s-2.005-0.51-2.005-0.51l-0.845,3.319l0.607,0.151l0.296-1.237l1.055,0.262l0.254,0.063
			 M522.384-1408.321c-0.158,0.066-0.511-0.044-0.511-0.044l-1.013-0.256c0,0,0.139-0.582,0.205-0.857
			c0.15,0.05,0.96,0.239,0.974,0.243c0.161,0.047,0.345,0.089,0.345,0.089s0.128,0.046,0.221,0.203
			c0.02,0.025,0.098,0.158,0.042,0.323C522.591-1408.455,522.451-1408.335,522.384-1408.321z"/>
		<g transform="rotate(-7)">
			<path fill="#009B3A" d="M535.107-1403.364c-0.087-0.039-0.177-0.067-0.268-0.096c-0.263,0.506-0.846,0.866-1.366,0.504
				c-0.944-0.658,0.215-2.382,1.159-1.724c0.228,0.159,0.331,0.38,0.347,0.615c0.143,0.062,0.297,0.09,0.44,0.157
				c0.06,0.028,0.12,0.057,0.18,0.085c0.048-0.631-0.232-1.234-0.771-1.518c-0.743-0.392-1.692-0.028-2.12,0.812
				c-0.428,0.841-0.172,1.84,0.571,2.232c0.743,0.392,1.692,0.028,2.12-0.812c0.017-0.033,0.031-0.067,0.046-0.101
				C535.332-1403.261,535.221-1403.313,535.107-1403.364z"/>
		</g>
	</g>
</g>
</svg>
